<svg width="59" height="45" viewBox="0 0 59 45" fill="none" xmlns="http://www.w3.org/2000/svg">
<rect x="1" y="1" width="57" height="39" rx="4" stroke="#7D6744" stroke-width="2"/>
<line x1="8" y1="44" x2="51" y2="44" stroke="#7D6744" stroke-width="2"/>
<path d="M42 20.5C42 22.9723 41.2669 25.389 39.8934 27.4446C38.5199 29.5002 36.5676 31.1024 34.2835 32.0485C31.9995 32.9946 29.4861 33.2421 27.0614 32.7598C24.6366 32.2775 22.4093 31.087 20.6612 29.3388C18.913 27.5907 17.7225 25.3634 17.2402 22.9386C16.7579 20.5139 17.0054 18.0005 17.9515 15.7165C18.8976 13.4324 20.4998 11.4801 22.5554 10.1066C24.611 8.73311 27.0277 8 29.5 8V20.5H42Z" fill="#7D6744"/>
<path d="M30.4259 7.00422C33.741 6.98355 36.9286 8.28066 39.2874 10.6102C41.6462 12.9397 42.9829 16.1109 43.0036 19.426L30.5038 19.504L30.4259 7.00422Z" fill="#7D6744"/>
</svg>
